<svg width="46" height="46" viewBox="0 0 46 46" fill="none" xmlns="http://www.w3.org/2000/svg">
<rect width="46" height="46" rx="2" fill="#191F33"/>
<g clip-path="url(#clip0_1962_6276)">
<path d="M23.8313 14.8588C25.126 13.1516 26.9259 13.1433 26.9259 13.1433C26.9259 13.1433 27.1936 14.7483 25.9074 16.2945C24.5341 17.9455 22.9732 17.6753 22.9732 17.6753C22.9732 17.6753 22.6801 16.3769 23.8313 14.8588ZM23.1378 18.7997C23.8039 18.7997 25.04 17.8837 26.649 17.8837C29.4186 17.8837 30.5081 19.8554 30.5081 19.8554C30.5081 19.8554 28.3771 20.9454 28.3771 23.5903C28.3771 26.574 31.0318 27.6023 31.0318 27.6023C31.0318 27.6023 29.1761 32.8278 26.6696 32.8278C25.5184 32.8278 24.6234 32.0517 23.4104 32.0517C22.1742 32.0517 20.9476 32.8568 20.1486 32.8568C17.8598 32.8568 14.9683 27.8999 14.9683 23.9154C14.9683 19.9951 17.4158 17.9386 19.7115 17.9386C21.2038 17.9386 22.362 18.7997 23.1378 18.7997Z" fill="white"/>
</g>
<defs>
<clipPath id="clip0_1962_6276">
<rect width="19.7143" height="19.7143" fill="white" transform="translate(13.1428 13.1429)"/>
</clipPath>
</defs>
</svg>
