<svg width="46" height="46" viewBox="0 0 46 46" fill="none" xmlns="http://www.w3.org/2000/svg">
<rect width="46" height="46" rx="2" fill="#EB524F"/>
<g clip-path="url(#clip0_1962_6122)">
<path d="M19.8487 14.9547C20.7274 15.2284 21.0001 15.9356 21.0001 16.7417C20.9926 17.3804 20.9168 18.0192 20.7653 18.6427C20.4396 20.0647 20.0381 21.4715 19.7048 22.8859C19.432 24.0493 19.1821 25.228 19.1745 26.4294C19.1821 26.7564 19.2351 27.0834 19.326 27.3952C19.5002 28.0187 20.0229 28.0644 20.4168 27.6841C20.6668 27.4408 20.8941 27.1823 21.0986 26.9009C22.0834 25.5854 22.9546 24.1862 23.6969 22.7186C24.4166 21.3118 26.0604 18.1332 26.1589 17.9431C26.674 16.9926 28.0982 17.1523 28.53 18.08C28.7724 18.5819 28.9088 19.137 28.9315 19.6921C28.9694 20.8936 29.083 24.247 29.136 24.7261C29.2345 25.6538 29.8254 25.9504 30.6132 25.4333C31.0905 25.1215 31.5222 24.7261 31.954 24.3535C32.3555 23.9961 32.5676 24.0341 32.7646 24.536C32.9388 24.977 32.8631 25.4181 32.7191 25.8363C32.2343 27.2507 31.1814 28.0035 29.7799 28.3077C29.333 28.4065 28.8709 28.4141 28.4164 28.3381C27.4089 28.1708 26.7649 27.5853 26.3786 26.6804C26.0074 25.8059 25.8938 23.3193 25.8105 22.9999C25.6741 23.2889 24.0606 26.6272 23.2121 27.8971C22.6819 28.7107 22.038 29.4483 21.2956 30.0795C20.5608 30.6954 19.7275 31.0756 18.7503 31.0984C17.5685 31.1289 16.7125 30.589 16.1216 29.5852C15.7429 28.9388 15.5838 28.2164 15.5308 27.4712C15.455 26.4294 15.6217 25.4105 15.8489 24.3915C15.9247 24.0645 15.9777 23.7299 16.061 23.3117C15.7353 23.479 15.5232 23.6311 15.2808 23.7147C14.9929 23.8136 14.6823 23.9125 14.3793 23.9048C13.3036 23.8744 13.1445 22.6806 13.1445 22.4829C13.5081 22.2015 13.8945 21.943 14.2278 21.6388C15.8186 20.194 17.0155 18.4602 17.8791 16.4983C18.167 15.852 18.523 15.2969 19.1593 14.9547C19.3714 14.8634 19.5608 14.8558 19.8487 14.9547Z" fill="white"/>
</g>
<defs>
<clipPath id="clip0_1962_6122">
<rect width="19.7143" height="19.7143" fill="white" transform="translate(13.1428 13.1429)"/>
</clipPath>
</defs>
</svg>
