<svg width="46" height="46" viewBox="0 0 46 46" fill="none" xmlns="http://www.w3.org/2000/svg">
<rect width="46" height="46" rx="2" fill="#FF4500"/>
<path d="M23 32.8571C28.4439 32.8571 32.8571 28.4439 32.8571 23C32.8571 17.556 28.4439 13.1429 23 13.1429C17.556 13.1429 13.1428 17.556 13.1428 23C13.1428 28.4439 17.556 32.8571 23 32.8571Z" fill="white"/>
<path d="M29.5754 23C29.5756 22.8115 29.5387 22.6248 29.4667 22.4505C29.3947 22.2763 29.289 22.118 29.1557 21.9847C29.0223 21.8514 28.864 21.7457 28.6898 21.6737C28.5156 21.6017 28.3289 21.5647 28.1404 21.565C27.7523 21.565 27.3993 21.7178 27.1405 21.9649C26.1526 21.2591 24.7997 20.8004 23.2941 20.7417L23.9528 17.6598L26.0936 18.1185C26.106 18.3856 26.2224 18.6373 26.4179 18.8198C26.6135 19.0022 26.8726 19.1009 27.14 19.0948C27.4074 19.0886 27.6617 18.9781 27.8487 18.7868C28.0356 18.5956 28.1403 18.3388 28.1404 18.0713C28.1402 17.8 28.0323 17.5398 27.8404 17.348C27.6486 17.1561 27.3884 17.0482 27.1171 17.0481C26.9255 17.0486 26.7379 17.1029 26.5757 17.2048C26.4134 17.3067 26.2831 17.4521 26.1995 17.6245L23.8118 17.1187C23.7412 17.1068 23.6706 17.1187 23.6234 17.154C23.5647 17.1893 23.5294 17.248 23.5178 17.3186L22.7883 20.7533C21.2592 20.8004 19.8829 21.2591 18.8831 21.9767C18.6138 21.7196 18.2556 21.5763 17.8833 21.5768C17.6948 21.5766 17.508 21.6135 17.3338 21.6855C17.1596 21.7576 17.0013 21.8632 16.868 21.9966C16.7347 22.1299 16.629 22.2882 16.557 22.4624C16.4849 22.6366 16.448 22.8233 16.4482 23.0119C16.4482 23.5999 16.801 24.0939 17.2952 24.3175C17.2712 24.4614 17.2594 24.607 17.2599 24.7528C17.2599 26.964 19.836 28.7639 23.0119 28.7639C26.1879 28.7639 28.7639 26.9758 28.7639 24.7528C28.7639 24.6116 28.7521 24.4585 28.7286 24.3175C28.9811 24.2021 29.1952 24.0166 29.3453 23.783C29.4954 23.5494 29.5753 23.2777 29.5754 23V23ZM19.7182 24.0233C19.7184 23.7519 19.8263 23.4917 20.0182 23.2998C20.2101 23.108 20.4704 23.0001 20.7417 23C21.3063 23 21.765 23.4587 21.765 24.0233C21.765 24.5879 21.3063 25.0468 20.7417 25.0468C20.1769 25.0584 19.7182 24.5879 19.7182 24.0233V24.0233ZM25.4468 26.7405C24.741 27.4463 23.4 27.4935 23.0119 27.4935C22.612 27.4935 21.271 27.4345 20.5769 26.7405C20.5518 26.716 20.5318 26.6868 20.5182 26.6544C20.5046 26.6221 20.4976 26.5874 20.4976 26.5523C20.4976 26.5172 20.5046 26.4825 20.5182 26.4502C20.5318 26.4179 20.5518 26.3886 20.5769 26.3641C20.6014 26.339 20.6306 26.319 20.663 26.3054C20.6953 26.2918 20.73 26.2848 20.7651 26.2848C20.8002 26.2848 20.8349 26.2918 20.8672 26.3054C20.8995 26.319 20.9288 26.339 20.9533 26.3641C21.4004 26.8111 22.3414 26.964 23.0119 26.964C23.6824 26.964 24.6351 26.8111 25.0703 26.3641C25.0948 26.339 25.1241 26.319 25.1564 26.3054C25.1887 26.2918 25.2235 26.2848 25.2585 26.2848C25.2936 26.2848 25.3283 26.2918 25.3607 26.3054C25.393 26.319 25.4223 26.339 25.4468 26.3641C25.4923 26.4162 25.5173 26.4831 25.5173 26.5523C25.5173 26.6215 25.4923 26.6884 25.4468 26.7405ZM25.2584 25.0584C24.6938 25.0584 24.2352 24.5997 24.2352 24.0351C24.2352 23.4705 24.6938 23.0119 25.2584 23.0119C25.5298 23.012 25.79 23.1198 25.9819 23.3117C26.1739 23.5036 26.2818 23.7638 26.2819 24.0351C26.2819 24.5879 25.8232 25.0584 25.2584 25.0584Z" fill="#FF4500"/>
</svg>
