<svg width="46" height="46" viewBox="0 0 46 46" fill="none" xmlns="http://www.w3.org/2000/svg">
<rect width="46" height="46" rx="2" fill="#EDEFF5"/>
<g clip-path="url(#clip0_1962_6314)">
<path fill-rule="evenodd" clip-rule="evenodd" d="M20.3971 13.1429C19.3096 13.1437 18.4295 14.0263 18.4303 15.1139C18.4295 16.2015 19.3104 17.0841 20.3979 17.0849H22.3656V15.1147C22.3664 14.0271 21.4854 13.1445 20.3971 13.1429C20.3979 13.1429 20.3979 13.1429 20.3971 13.1429V13.1429ZM20.3971 18.4H15.1517C14.0642 18.4008 13.1833 19.2835 13.1841 20.3711C13.1825 21.4587 14.0634 22.3413 15.1509 22.3429H20.3971C21.4846 22.3421 22.3656 21.4595 22.3648 20.3719C22.3656 19.2835 21.4846 18.4008 20.3971 18.4Z" fill="#36C5F0"/>
<path fill-rule="evenodd" clip-rule="evenodd" d="M32.8572 20.3711C32.858 19.2835 31.9771 18.4008 30.8896 18.4C29.8021 18.4008 28.9211 19.2835 28.9219 20.3711V22.3429H30.8896C31.9771 22.3421 32.858 21.4595 32.8572 20.3711ZM27.611 20.3711V15.1139C27.6118 14.0271 26.7317 13.1445 25.6442 13.1429C24.5566 13.1437 23.6757 14.0263 23.6765 15.1139V20.3711C23.6749 21.4587 24.5558 22.3413 25.6433 22.3429C26.7309 22.3421 27.6118 21.4595 27.611 20.3711Z" fill="#2EB67D"/>
<path fill-rule="evenodd" clip-rule="evenodd" d="M25.6432 32.8571C26.7307 32.8563 27.6116 31.9737 27.6108 30.8861C27.6116 29.7985 26.7307 28.9159 25.6432 28.9151H23.6755V30.8861C23.6747 31.9729 24.5557 32.8555 25.6432 32.8571ZM25.6432 27.5992H30.8894C31.9769 27.5984 32.8578 26.7157 32.857 25.6281C32.8586 24.5405 31.9777 23.6579 30.8902 23.6563H25.644C24.5565 23.6571 23.6755 24.5397 23.6763 25.6273C23.6755 26.7157 24.5557 27.5984 25.6432 27.5992Z" fill="#ECB22E"/>
<path fill-rule="evenodd" clip-rule="evenodd" d="M13.1841 25.6281C13.1833 26.7157 14.0642 27.5984 15.1517 27.5992C16.2392 27.5984 17.1202 26.7157 17.1194 25.6281V23.6571H15.1517C14.0642 23.6579 13.1833 24.5405 13.1841 25.6281ZM18.4303 25.6281V30.8853C18.4287 31.9729 19.3096 32.8555 20.3971 32.8571C21.4846 32.8563 22.3656 31.9737 22.3648 30.8861V25.6297C22.3664 24.5421 21.4854 23.6595 20.3979 23.6579C19.3096 23.6579 18.4295 24.5405 18.4303 25.6281C18.4303 25.6289 18.4303 25.6281 18.4303 25.6281Z" fill="#E01E5A"/>
</g>
<defs>
<clipPath id="clip0_1962_6314">
<rect width="19.7143" height="19.7143" fill="white" transform="translate(13.1428 13.1429)"/>
</clipPath>
</defs>
</svg>
