<svg width="46" height="46" viewBox="0 0 46 46" fill="none" xmlns="http://www.w3.org/2000/svg">
<rect width="46" height="46" rx="2" fill="#1DA1F2"/>
<g clip-path="url(#clip0_1962_6162)">
<path d="M19.3082 30.8883C26.7064 30.8883 30.7522 24.7944 30.7522 19.5099C30.7522 19.3368 30.7487 19.1645 30.7408 18.993C31.5281 18.4266 32.2075 17.7254 32.7472 16.9221C32.0265 17.2407 31.251 17.4551 30.4374 17.5518C31.2678 17.0567 31.9053 16.2735 32.2061 15.3398C31.4165 15.8055 30.5528 16.1338 29.652 16.3106C28.9181 15.5332 27.8731 15.0471 26.7161 15.0471C24.4949 15.0471 22.6937 16.838 22.6937 19.0456C22.6937 19.3595 22.729 19.6646 22.798 19.9575C19.4551 19.7902 16.4909 18.1989 14.5071 15.7792C14.1498 16.3895 13.9618 17.0831 13.9625 17.7892C13.9625 19.1766 14.6725 20.4015 15.7524 21.118C15.1136 21.0986 14.4889 20.9271 13.9307 20.6178C13.9301 20.6346 13.9301 20.651 13.9301 20.6689C13.9301 22.6056 15.3166 24.2227 17.157 24.5891C16.8113 24.6827 16.4546 24.73 16.0964 24.7298C15.8377 24.7298 15.5855 24.7045 15.3405 24.6577C15.8525 26.2467 17.3374 27.403 19.0978 27.4353C17.7212 28.5081 15.987 29.1471 14.1022 29.1471C13.7816 29.1474 13.4613 29.1289 13.1428 29.0917C14.9229 30.2261 17.0366 30.8881 19.3084 30.8881" fill="white"/>
</g>
<defs>
<clipPath id="clip0_1962_6162">
<rect width="19.7143" height="19.7143" fill="white" transform="translate(13.1428 13.1429)"/>
</clipPath>
</defs>
</svg>
