<svg width="46" height="46" viewBox="0 0 46 46" fill="none" xmlns="http://www.w3.org/2000/svg">
<rect width="46" height="46" rx="2" fill="#6FDA44"/>
<path d="M28.3257 23.9354C27.4333 23.9354 26.597 23.5585 25.8373 22.9448L26.0223 22.0786L26.0303 22.0465C26.195 21.1243 26.7177 19.5762 28.3257 19.5762C29.5317 19.5762 30.5126 20.5547 30.5126 21.7578C30.5085 22.9568 29.5277 23.9354 28.3257 23.9354ZM28.3257 17.3666C26.2714 17.3666 24.6796 18.698 24.0324 20.8876C23.0434 19.4078 22.2957 17.6313 21.8575 16.1354H19.6465V21.8741C19.6465 23.005 18.7219 23.9273 17.5883 23.9273C16.4546 23.9273 15.5301 23.005 15.5301 21.8741V16.1354H13.3189V21.8741C13.3108 24.2242 15.2284 26.153 17.5841 26.153C19.9399 26.153 21.8574 24.2242 21.8574 21.8741V20.9117C22.2875 21.8059 22.8141 22.7082 23.4534 23.5103L22.0985 29.8625H24.3619L25.3427 25.2547C26.203 25.8041 27.192 26.1491 28.3256 26.1491C30.7496 26.1491 32.7235 24.168 32.7235 21.7497C32.7235 19.3356 30.7496 17.3666 28.3256 17.3666H28.3257Z" fill="white"/>
</svg>
