<svg width="46" height="46" viewBox="0 0 46 46" fill="none" xmlns="http://www.w3.org/2000/svg">
<rect width="46" height="46" rx="2" fill="black"/>
<g clip-path="url(#clip0_1962_6044)">
<path d="M19.4581 32.8572C21.2431 32.8572 22.6918 31.3852 22.6918 29.5715V26.2858H19.4581C17.6731 26.2858 16.2244 27.7578 16.2244 29.5715C16.2244 31.3852 17.6731 32.8572 19.4581 32.8572Z" fill="#0ACF83"/>
<path d="M16.2244 22.9999C16.2244 21.1862 17.6731 19.7142 19.4581 19.7142H22.6918V26.2856H19.4581C17.6731 26.2856 16.2244 24.8136 16.2244 22.9999Z" fill="#A259FF"/>
<path d="M16.2249 16.4285C16.2249 14.6148 17.6736 13.1428 19.4586 13.1428H22.6923V19.7143H19.4586C17.6736 19.7143 16.2249 18.2423 16.2249 16.4285Z" fill="#F24E1E"/>
<path d="M22.6919 13.1428H25.9256C27.7107 13.1428 29.1594 14.6148 29.1594 16.4285C29.1594 18.2423 27.7107 19.7143 25.9256 19.7143H22.6919V13.1428Z" fill="#FF7262"/>
<path d="M29.1594 22.9999C29.1594 24.8136 27.7107 26.2856 25.9256 26.2856C24.1406 26.2856 22.6919 24.8136 22.6919 22.9999C22.6919 21.1862 24.1406 19.7142 25.9256 19.7142C27.7107 19.7142 29.1594 21.1862 29.1594 22.9999Z" fill="#1ABCFE"/>
</g>
<defs>
<clipPath id="clip0_1962_6044">
<rect width="19.7143" height="19.7143" fill="white" transform="translate(13.1428 13.1428)"/>
</clipPath>
</defs>
</svg>
