<svg width="34" height="34" viewBox="0 0 34 34" fill="none" xmlns="http://www.w3.org/2000/svg">
<path d="M22.6666 4.91266C24.7657 5.95582 26.2082 8.12195 26.2082 10.625C26.2082 13.1281 24.7657 15.2942 22.6666 16.3373M25.4999 23.7524C27.6411 24.7213 29.5693 26.3004 31.1666 28.3333M2.83325 28.3333C5.59078 24.8237 9.33459 22.6667 13.4582 22.6667C17.5819 22.6667 21.3257 24.8237 24.0832 28.3333M19.8332 10.625C19.8332 14.1458 16.979 17 13.4582 17C9.93743 17 7.08325 14.1458 7.08325 10.625C7.08325 7.10418 9.93743 4.25 13.4582 4.25C16.979 4.25 19.8332 7.10418 19.8332 10.625Z" stroke="url(#paint0_linear_2232_4163)" stroke-width="1.5" stroke-linecap="round" stroke-linejoin="round"/>
<defs>
<linearGradient id="paint0_linear_2232_4163" x1="0.0233324" y1="12.5286" x2="39.2194" y2="15.0231" gradientUnits="userSpaceOnUse">
<stop stop-color="#022931"/>
<stop offset="1" stop-color="#114B53"/>
</linearGradient>
</defs>
</svg>
