<svg width="34" height="34" viewBox="0 0 34 34" fill="none" xmlns="http://www.w3.org/2000/svg">
<path d="M11.3332 19.833C11.3332 19.833 13.4582 22.6663 16.9999 22.6663C20.5415 22.6663 22.6665 19.833 22.6665 19.833M21.2499 12.7496H21.264M12.7499 12.7496H12.764M31.1665 16.9996C31.1665 24.8237 24.8239 31.1663 16.9999 31.1663C9.17589 31.1663 2.83325 24.8237 2.83325 16.9996C2.83325 9.17565 9.17589 2.83301 16.9999 2.83301C24.8239 2.83301 31.1665 9.17565 31.1665 16.9996ZM21.9582 12.7496C21.9582 13.1408 21.6411 13.458 21.2499 13.458C20.8587 13.458 20.5415 13.1408 20.5415 12.7496C20.5415 12.3584 20.8587 12.0413 21.2499 12.0413C21.6411 12.0413 21.9582 12.3584 21.9582 12.7496ZM13.4582 12.7496C13.4582 13.1408 13.1411 13.458 12.7499 13.458C12.3587 13.458 12.0415 13.1408 12.0415 12.7496C12.0415 12.3584 12.3587 12.0413 12.7499 12.0413C13.1411 12.0413 13.4582 12.3584 13.4582 12.7496Z" stroke="url(#paint0_linear_2232_4166)" stroke-width="1.5" stroke-linecap="round" stroke-linejoin="round"/>
<defs>
<linearGradient id="paint0_linear_2232_4166" x1="0.0233371" y1="12.5726" x2="39.2633" y2="14.6952" gradientUnits="userSpaceOnUse">
<stop stop-color="#022931"/>
<stop offset="1" stop-color="#114B53"/>
</linearGradient>
</defs>
</svg>
