<svg width="20" height="20" viewBox="0 0 20 20" fill="none" xmlns="http://www.w3.org/2000/svg">
<path d="M5.00032 9.16659V12.4999M15.0004 7.49992V10.8332M14.167 3.33325C16.2076 3.33325 17.3113 3.64555 17.8605 3.88779C17.9336 3.92005 17.9702 3.93618 18.0757 4.0369C18.139 4.09727 18.2544 4.27441 18.2841 4.35666C18.3337 4.49387 18.3337 4.56887 18.3337 4.71887V13.6758C18.3337 14.4331 18.3337 14.8118 18.2201 15.0064C18.1046 15.2044 17.9932 15.2964 17.777 15.3725C17.5644 15.4473 17.1353 15.3649 16.2772 15.2C15.6765 15.0846 14.9641 14.9999 14.167 14.9999C11.667 14.9999 9.16699 16.6665 5.83365 16.6665C3.79306 16.6665 2.68937 16.3542 2.14022 16.112C2.06709 16.0798 2.03052 16.0636 1.92499 15.9629C1.86172 15.9025 1.74625 15.7254 1.71654 15.6431C1.66699 15.5059 1.66699 15.4309 1.66699 15.2809V6.32396C1.66699 5.56666 1.66699 5.188 1.78055 4.99337C1.89607 4.79539 2.00748 4.70335 2.2237 4.62726C2.43627 4.55246 2.86535 4.63491 3.72351 4.79979C4.32417 4.9152 5.03655 4.99992 5.83365 4.99992C8.33365 4.99992 10.8337 3.33325 14.167 3.33325ZM12.0837 9.99992C12.0837 11.1505 11.151 12.0832 10.0003 12.0832C8.84973 12.0832 7.91699 11.1505 7.91699 9.99992C7.91699 8.84933 8.84973 7.91659 10.0003 7.91659C11.151 7.91659 12.0837 8.84933 12.0837 9.99992Z" stroke="#022931" stroke-width="1.5" stroke-linecap="round" stroke-linejoin="round"/>
</svg>
