<svg width="20" height="20" viewBox="0 0 20 20" fill="none" xmlns="http://www.w3.org/2000/svg">
<g clip-path="url(#clip0_2288_4192)">
<mask id="mask0_2288_4192" style="mask-type:luminance" maskUnits="userSpaceOnUse" x="0" y="0" width="20" height="20">
<path d="M20 0H0V20H20V0Z" fill="white"/>
</mask>
<g mask="url(#mask0_2288_4192)">
<path d="M1.66699 10.0001H18.3337M1.66699 10.0001C1.66699 14.6025 5.39795 18.3335 10.0003 18.3335M1.66699 10.0001C1.66699 5.39771 5.39795 1.66675 10.0003 1.66675M18.3337 10.0001C18.3337 14.6025 14.6027 18.3335 10.0003 18.3335M18.3337 10.0001C18.3337 5.39771 14.6027 1.66675 10.0003 1.66675M10.0003 18.3335C12.0847 16.0515 13.2693 13.0901 13.3337 10.0001C13.2693 6.91011 12.0847 3.94871 10.0003 1.66675M10.0003 18.3335C7.91592 16.0515 6.73136 13.0901 6.66699 10.0001C6.73136 6.91011 7.91592 3.94871 10.0003 1.66675" stroke="#022931" stroke-width="1.5" stroke-linecap="round" stroke-linejoin="round"/>
</g>
</g>
<defs>
<clipPath id="clip0_2288_4192">
<rect width="20" height="20" fill="white"/>
</clipPath>
</defs>
</svg>
