<svg id="Layer_1" data-name="Layer 1" xmlns="http://www.w3.org/2000/svg" viewBox="0 0 140 24"><defs><style>.cls-1{fill:#fff;}.cls-2{fill:#b30009;}</style></defs><path class="cls-1" d="M50.3,18.9H47.2V13.5H42.6v5.4H39.5V6h3.1v4.9h4.6V6h3.1ZM56.1,9v9.9h-3V9ZM54.6,5a2,2,0,0,1,1.1.3,1.27,1.27,0,0,1,.5,1.1,1.27,1.27,0,0,1-.5,1.1,2,2,0,0,1-1.1.3,2.11,2.11,0,0,1-1.2-.3c-.2-.1-.4-.5-.4-1.1a1.17,1.17,0,0,1,.5-1.1A2,2,0,0,1,54.6,5Zm9.9,3.8H65a.87.87,0,0,1,.5.1l-.3,2.9a.79.79,0,0,1-.4-.1h-.6a2.74,2.74,0,0,0-.9.1,6,6,0,0,0-.8.3,4.44,4.44,0,0,0-.6.7,3.75,3.75,0,0,0-.2,1.1v5H58.6V9h2.3l.5,1.6h.1a5.57,5.57,0,0,1,.7-.9,3.47,3.47,0,0,1,1-.7A6.39,6.39,0,0,1,64.5,8.8Zm6.5,0a6,6,0,0,1,2.4.5A3.29,3.29,0,0,1,75,10.8a4.84,4.84,0,0,1,.6,2.5v1.4H69.3a2.11,2.11,0,0,0,.6,1.6,2.36,2.36,0,0,0,1.7.6,8.87,8.87,0,0,0,1.7-.2,5.17,5.17,0,0,0,1.6-.6v2.3a4.33,4.33,0,0,1-1.6.5,11.21,11.21,0,0,1-2,.2,7.56,7.56,0,0,1-2.7-.5,3.67,3.67,0,0,1-1.8-1.7,6.12,6.12,0,0,1-.7-2.9,5.94,5.94,0,0,1,.6-2.9,4,4,0,0,1,1.7-1.7A6.15,6.15,0,0,1,71,8.8Zm.1,2.1a1.7,1.7,0,0,0-1.2.5,2,2,0,0,0-.5,1.4h3.4a2.51,2.51,0,0,0-.2-.9,1.33,1.33,0,0,0-.6-.7A1.19,1.19,0,0,0,71.1,10.9Zm17.6,8H85.6V13.5H81v5.4H77.9V6H81v4.9h4.6V6h3.1Zm12-5a7.44,7.44,0,0,1-.3,2.2,3.33,3.33,0,0,1-1,1.6,4,4,0,0,1-1.5,1,6.82,6.82,0,0,1-4,0,4,4,0,0,1-1.5-1,4.25,4.25,0,0,1-1-1.6,7.84,7.84,0,0,1-.4-2.2,6,6,0,0,1,.6-2.8,4,4,0,0,1,1.7-1.7,5.24,5.24,0,0,1,2.6-.6,4.84,4.84,0,0,1,2.5.6,4.62,4.62,0,0,1,1.7,1.7A6,6,0,0,1,100.7,13.9Zm-6.6,0a7.78,7.78,0,0,0,.2,1.6,2.11,2.11,0,0,0,.6,1,1.68,1.68,0,0,0,1,.3,1.5,1.5,0,0,0,1-.3c.3-.2.4-.5.6-1a6.16,6.16,0,0,0,.2-1.6,5.83,5.83,0,0,0-.2-1.5,1.44,1.44,0,0,0-.6-.9,1.68,1.68,0,0,0-1-.3,1.49,1.49,0,0,0-1.4.7A3.48,3.48,0,0,0,94.1,13.9ZM112.2,9v9.9h-2.3l-.4-1.3h-.2a3,3,0,0,1-.8.8,4.68,4.68,0,0,1-1,.5,4.86,4.86,0,0,1-1.2.2,3.4,3.4,0,0,1-1.8-.4,2.78,2.78,0,0,1-1.2-1.2,4.05,4.05,0,0,1-.5-2.1V9h3.1v5.6a2.78,2.78,0,0,0,.3,1.5,1.27,1.27,0,0,0,1.1.5,1.6,1.6,0,0,0,1.2-.4,1.71,1.71,0,0,0,.6-1.1,8.87,8.87,0,0,0,.2-1.7V9Zm8.4-.2h.5a.87.87,0,0,1,.5.1l-.3,2.9a.79.79,0,0,1-.4-.1h-.6a2.74,2.74,0,0,0-.9.1,6,6,0,0,0-.8.3,4.44,4.44,0,0,0-.6.7,3.75,3.75,0,0,0-.2,1.1v5h-3.1V9H117l.5,1.6h.1a5.57,5.57,0,0,1,.7-.9,3.47,3.47,0,0,1,1-.7A6.39,6.39,0,0,1,120.6,8.8Zm9.7,7.1a3.12,3.12,0,0,1-.5,1.7,2.68,2.68,0,0,1-1.4,1.1,5.48,5.48,0,0,1-2.4.4,9.88,9.88,0,0,1-1.8-.1,6.07,6.07,0,0,1-1.6-.5V16a6.36,6.36,0,0,0,1.8.6,12.27,12.27,0,0,0,1.6.2,2.16,2.16,0,0,0,1-.2.56.56,0,0,0,.3-.5.52.52,0,0,0-.2-.4,1.51,1.51,0,0,0-.6-.4,6.42,6.42,0,0,0-1.4-.6,9.82,9.82,0,0,1-1.5-.8,2.88,2.88,0,0,1-.9-1,2.83,2.83,0,0,1-.3-1.4,2.49,2.49,0,0,1,1.1-2.1,5,5,0,0,1,2.9-.7,10.9,10.9,0,0,1,1.8.2,6.36,6.36,0,0,1,1.8.6l-.9,2.1c-.3-.1-.7-.3-1-.4l-.9-.3a2.41,2.41,0,0,0-.8-.1,2,2,0,0,0-.8.1c-.2.1-.3.2-.3.4a.63.63,0,0,0,.1.4,4.81,4.81,0,0,0,.6.4,10.2,10.2,0,0,1,1.3.6,9.15,9.15,0,0,1,1.4.7,3.84,3.84,0,0,1,.9.9A1.83,1.83,0,0,1,130.3,15.9Z"/><path class="cls-1" d="M16.2,2.5V21.8H11.5V7.4a3.76,3.76,0,0,1,.4-1.8,5.32,5.32,0,0,1,1-1.6,4,4,0,0,1,1.5-1A4,4,0,0,1,16.2,2.5Z"/><path class="cls-1" d="M23.2,9.8h7V21.9H25.5V14.7h-7a3.76,3.76,0,0,1,.4-1.8,5.32,5.32,0,0,1,1-1.6,4.92,4.92,0,0,1,1.5-1A3.09,3.09,0,0,1,23.2,9.8Z"/><path class="cls-1" d="M27.9,7.6a3.28,3.28,0,0,1-1.4-.4A2.68,2.68,0,0,1,25.6,6a2.56,2.56,0,0,1-.1-1.5,2.12,2.12,0,0,1,.7-1.3,3.23,3.23,0,0,1,1.3-.7,3.8,3.8,0,0,1,1.5.1,1.84,1.84,0,0,1,1.1,1A3.24,3.24,0,0,1,30.4,5a3.78,3.78,0,0,1-.2,1,2.3,2.3,0,0,1-.5.8,6.68,6.68,0,0,1-.8.6A1.82,1.82,0,0,1,27.9,7.6Z"/><rect class="cls-2" x="9.7" y="0.9" width="22.2" height="22.1"/><path class="cls-1" d="M11.7,8V20.8h4.6V3.4a4.62,4.62,0,0,0-3.2,1.3A4.35,4.35,0,0,0,11.7,8Z"/><path class="cls-1" d="M28,2.9a2,2,0,0,0-1.3.4,2.42,2.42,0,0,0-.9,1.1,2.17,2.17,0,0,0-.1,1.4A1.84,1.84,0,0,0,26.4,7a2.86,2.86,0,0,0,1.2.7A3.15,3.15,0,0,0,29,7.6a3.1,3.1,0,0,0,1.1-.9,2.17,2.17,0,0,0,.4-1.3,2.62,2.62,0,0,0-.7-1.7A2.72,2.72,0,0,0,28,2.9Z"/><path class="cls-1" d="M19.1,10a4.62,4.62,0,0,0,1.3,3.2,4.4,4.4,0,0,0,3.2,1.3h2v6.3h4.6V10Z"/></svg>