<svg id="Layer_1" data-name="Layer 1" xmlns="http://www.w3.org/2000/svg" viewBox="0 0 140 24"><defs><style>.cls-1{fill:#fff;}.cls-2{fill:#b30009;}</style></defs><path d="M50.3,18.9H47.2V13.5H42.6v5.4H39.5V6h3.1v4.9h4.6V6h3.1ZM56.1,9v9.9h-3V9ZM54.6,5a2,2,0,0,1,1.1.3,1.29,1.29,0,0,1,.5,1.1,1.29,1.29,0,0,1-.5,1.1,2,2,0,0,1-1.1.3,2.13,2.13,0,0,1-1.2-.3c-.2-.1-.4-.5-.4-1.1a1.17,1.17,0,0,1,.5-1.1A2,2,0,0,1,54.6,5Zm9.9,3.8H65a.9.9,0,0,1,.5.1l-.3,2.9a.76.76,0,0,1-.4-.1h-.6a2.77,2.77,0,0,0-.9.1,6.89,6.89,0,0,0-.8.3,4.35,4.35,0,0,0-.6.7,3.59,3.59,0,0,0-.2,1.1v5H58.6V9h2.3l.5,1.6h.1a5.5,5.5,0,0,1,.7-.9,3.59,3.59,0,0,1,1-.7A6.88,6.88,0,0,1,64.5,8.8Zm6.5,0a6,6,0,0,1,2.4.5A3.32,3.32,0,0,1,75,10.8a4.87,4.87,0,0,1,.6,2.5v1.4H69.3a2.11,2.11,0,0,0,.6,1.6,2.35,2.35,0,0,0,1.7.6,8.81,8.81,0,0,0,1.7-.2,5.23,5.23,0,0,0,1.6-.6v2.3a4.28,4.28,0,0,1-1.6.5,11.24,11.24,0,0,1-2,.2,7.63,7.63,0,0,1-2.7-.5,3.72,3.72,0,0,1-1.8-1.7,6.2,6.2,0,0,1-.7-2.9,6,6,0,0,1,.6-2.9,4,4,0,0,1,1.7-1.7A6.16,6.16,0,0,1,71,8.8Zm.1,2.1a1.66,1.66,0,0,0-1.2.5,2,2,0,0,0-.5,1.4h3.4a2.39,2.39,0,0,0-.2-.9,1.34,1.34,0,0,0-.6-.7A1.22,1.22,0,0,0,71.1,10.9Zm17.6,8H85.6V13.5H81v5.4H77.9V6H81v4.9h4.6V6h3.1Zm12-5a7.32,7.32,0,0,1-.3,2.2,3.36,3.36,0,0,1-1,1.6,4,4,0,0,1-1.5,1,6.82,6.82,0,0,1-4,0,4,4,0,0,1-1.5-1,4.35,4.35,0,0,1-1-1.6,7.8,7.8,0,0,1-.4-2.2,6.09,6.09,0,0,1,.6-2.8,4,4,0,0,1,1.7-1.7,5.26,5.26,0,0,1,2.6-.6,4.87,4.87,0,0,1,2.5.6,4.62,4.62,0,0,1,1.7,1.7A6.09,6.09,0,0,1,100.7,13.9Zm-6.6,0a7.77,7.77,0,0,0,.2,1.6,2.07,2.07,0,0,0,.6,1,1.69,1.69,0,0,0,1,.3,1.49,1.49,0,0,0,1-.3c.3-.2.4-.5.6-1a6.27,6.27,0,0,0,.2-1.6,6.05,6.05,0,0,0-.2-1.5,1.46,1.46,0,0,0-.6-.9,1.69,1.69,0,0,0-1-.3,1.51,1.51,0,0,0-1.4.7A3.52,3.52,0,0,0,94.1,13.9ZM112.2,9v9.9h-2.3l-.4-1.3h-.2a3,3,0,0,1-.8.8,4.67,4.67,0,0,1-1,.5,5,5,0,0,1-1.2.2,3.42,3.42,0,0,1-1.8-.4,2.78,2.78,0,0,1-1.2-1.2,4.06,4.06,0,0,1-.5-2.1V9h3.1v5.6a2.81,2.81,0,0,0,.3,1.5,1.29,1.29,0,0,0,1.1.5,1.59,1.59,0,0,0,1.2-.4,1.68,1.68,0,0,0,.6-1.1,8.81,8.81,0,0,0,.2-1.7V9Zm8.4-.2h.5a.9.9,0,0,1,.5.1l-.3,2.9a.76.76,0,0,1-.4-.1h-.6a2.77,2.77,0,0,0-.9.1,6.89,6.89,0,0,0-.8.3,4.35,4.35,0,0,0-.6.7,3.59,3.59,0,0,0-.2,1.1v5h-3.1V9H117l.5,1.6h.1a5.5,5.5,0,0,1,.7-.9,3.59,3.59,0,0,1,1-.7A6.88,6.88,0,0,1,120.6,8.8Zm9.7,7.1a3.1,3.1,0,0,1-.5,1.7,2.67,2.67,0,0,1-1.4,1.1,5.46,5.46,0,0,1-2.4.4,9.72,9.72,0,0,1-1.8-.1,5.82,5.82,0,0,1-1.6-.5V16a6.36,6.36,0,0,0,1.8.6,11.55,11.55,0,0,0,1.6.2,2.15,2.15,0,0,0,1-.2.55.55,0,0,0,.3-.5.52.52,0,0,0-.2-.4,1.54,1.54,0,0,0-.6-.4,6.45,6.45,0,0,0-1.4-.6,10.19,10.19,0,0,1-1.5-.8,2.84,2.84,0,0,1-.9-1,2.9,2.9,0,0,1-.3-1.4,2.48,2.48,0,0,1,1.1-2.1,5,5,0,0,1,2.9-.7,11,11,0,0,1,1.8.2,6.36,6.36,0,0,1,1.8.6l-.9,2.1c-.3-.1-.7-.3-1-.4l-.9-.3a2.49,2.49,0,0,0-.8-.1,2,2,0,0,0-.8.1c-.2.1-.3.2-.3.4a.6.6,0,0,0,.1.4,5.92,5.92,0,0,0,.6.4,11.82,11.82,0,0,1,1.3.6,9.08,9.08,0,0,1,1.4.7,3.82,3.82,0,0,1,.9.9A1.83,1.83,0,0,1,130.3,15.9Z"/><path class="cls-1" d="M16.2,2.5V21.8H11.5V7.4a3.66,3.66,0,0,1,.4-1.8,5.37,5.37,0,0,1,1-1.6,4,4,0,0,1,1.5-1A4.07,4.07,0,0,1,16.2,2.5Z"/><path class="cls-1" d="M23.2,9.8h7V21.9H25.5V14.7h-7a3.66,3.66,0,0,1,.4-1.8,5.37,5.37,0,0,1,1-1.6,4.92,4.92,0,0,1,1.5-1A3.09,3.09,0,0,1,23.2,9.8Z"/><path class="cls-1" d="M27.9,7.6a3.26,3.26,0,0,1-1.4-.4A2.73,2.73,0,0,1,25.6,6a2.57,2.57,0,0,1-.1-1.5,2.09,2.09,0,0,1,.7-1.3,3.29,3.29,0,0,1,1.3-.7,3.81,3.81,0,0,1,1.5.1,1.82,1.82,0,0,1,1.1,1A3.19,3.19,0,0,1,30.4,5a3.55,3.55,0,0,1-.2,1,2.18,2.18,0,0,1-.5.8,5.55,5.55,0,0,1-.8.6A1.8,1.8,0,0,1,27.9,7.6Z"/><rect class="cls-2" x="9.7" y="0.9" width="22.2" height="22.1"/><path class="cls-1" d="M11.7,8V20.8h4.6V3.4a4.63,4.63,0,0,0-3.2,1.3A4.32,4.32,0,0,0,11.7,8Z"/><path class="cls-1" d="M28,2.9a2,2,0,0,0-1.3.4,2.44,2.44,0,0,0-.9,1.1,2.2,2.2,0,0,0-.1,1.4A1.85,1.85,0,0,0,26.4,7a2.92,2.92,0,0,0,1.2.7A3.21,3.21,0,0,0,29,7.6a3.13,3.13,0,0,0,1.1-.9,2.2,2.2,0,0,0,.4-1.3,2.61,2.61,0,0,0-.7-1.7A2.69,2.69,0,0,0,28,2.9Z"/><path class="cls-1" d="M19.1,10a4.63,4.63,0,0,0,1.3,3.2,4.38,4.38,0,0,0,3.2,1.3h2v6.3h4.6V10Z"/></svg>