<?xml version="1.0" encoding="utf-8"?>
<!-- Generator: Adobe Illustrator 28.2.0, SVG Export Plug-In . SVG Version: 6.00 Build 0)  -->
<svg version="1.1" id="Layer_1" xmlns="http://www.w3.org/2000/svg" xmlns:xlink="http://www.w3.org/1999/xlink" x="0px" y="0px"
	 viewBox="0 0 472 183" style="enable-background:new 0 0 472 183;" xml:space="preserve">
<style type="text/css">
	.st0{fill:#E50914;}
</style>
<g>
	<g>
		<g>
			<g>
				<g>
					<path class="st0" d="M159.2,84.3c-3.8-34.8-33.2-61.8-69-61.8c-35.7,0-65.2,27-69,61.7C21.3,84.2,89.5,91.9,159.2,84.3z"/>
				</g>
				<g>
					<path class="st0" d="M21.3,99.4c3.8,34.8,33.2,61.8,69,61.8c35.7,0,65.2-27,69-61.7C159.2,99.5,97.4,112.4,21.3,99.4z"/>
				</g>
			</g>
		</g>
		<g>
			<g>
				<g>
					<path class="st0" d="M24.9,88.1c-0.4,1.8-2,3.2-4,3.2c-0.1,0-0.1,0-0.2,0c0.1,0,0.1,0,0.2,0.1c1.9,0.5,3.1,2.2,3.1,4.1
						c0.4-1.8,2.1-3.2,4-3.2c0.1,0,0.1,0,0.2,0c-0.1,0-0.1,0-0.2-0.1C26.1,91.7,24.9,90,24.9,88.1z"/>
					<path class="st0" d="M35.8,89.2c-0.4,1.9-2,3.3-3.9,3.3c-0.1,0-0.1,0-0.2,0c0.1,0,0.1,0,0.2,0.1c1.9,0.5,3.2,2.3,3.2,4.2
						c0.4-1.9,2-3.3,3.9-3.4c0.1,0,0.1,0,0.2,0c-0.1,0-0.1,0-0.2-0.1C37.1,92.8,35.8,91.1,35.8,89.2z"/>
					<path class="st0" d="M46.7,90.1c-0.4,2-2,3.4-3.9,3.5c-0.1,0-0.1,0-0.2,0c0.1,0,0.1,0,0.2,0.1C44.7,94.2,46,96,46,98
						c0.4-2,2-3.4,3.9-3.6c0.1,0,0.1,0,0.2,0c-0.1,0-0.1,0-0.2-0.1C48,93.9,46.7,92.1,46.7,90.1z"/>
					<path class="st0" d="M57.7,90.8c-0.3,2-1.9,3.6-3.9,3.7c-0.1,0-0.1,0-0.2,0c0.1,0,0.1,0,0.2,0.1c1.9,0.5,3.2,2.3,3.2,4.4
						c0.4-2,2-3.6,3.9-3.8c0.1,0,0.1,0,0.2,0c-0.1,0-0.1,0-0.2-0.1C59,94.7,57.7,92.9,57.7,90.8z"/>
					<path class="st0" d="M68.6,91.3c-0.3,2-1.9,3.7-3.8,3.9c-0.1,0-0.1,0-0.2,0c0.1,0,0.1,0,0.2,0.1c1.9,0.4,3.2,2.2,3.3,4.3
						c0.3-2.1,1.9-3.7,3.8-4c0.1,0,0.1,0,0.2,0c-0.1,0-0.1,0-0.2,0C70,95.2,68.7,93.4,68.6,91.3z"/>
					<path class="st0" d="M79.6,91.6c-0.3,2-1.8,3.7-3.7,4c-0.1,0-0.1,0-0.2,0c0.1,0,0.1,0,0.2,0c1.9,0.4,3.3,2.2,3.4,4.2
						c0.3-2.1,1.8-3.7,3.8-4c0.1,0,0.1,0,0.2,0c-0.1,0-0.1,0-0.2,0C81.1,95.4,79.7,93.7,79.6,91.6z"/>
					<path class="st0" d="M90.5,91.7c-0.2,2-1.7,3.7-3.6,4c-0.1,0-0.1,0-0.2,0c0.1,0,0.1,0,0.2,0c1.9,0.4,3.4,2.1,3.5,4.2
						c0.2-2.1,1.7-3.8,3.6-4.1c0.1,0,0.1,0,0.2,0c-0.1,0-0.1,0-0.2,0C92.1,95.5,90.7,93.8,90.5,91.7z"/>
					<path class="st0" d="M101.5,91.6c-0.2,2-1.6,3.7-3.5,4.1c-0.1,0-0.1,0-0.2,0c0.1,0,0.1,0,0.2,0c1.9,0.3,3.4,2,3.7,4.1
						c0.2-2.1,1.6-3.8,3.5-4.1c0.1,0,0.1,0,0.2,0c-0.1,0-0.1,0-0.2,0C103.2,95.4,101.7,93.7,101.5,91.6z"/>
					<path class="st0" d="M112.4,91.3c-0.1,2-1.5,3.8-3.4,4.1c-0.1,0-0.1,0-0.2,0c0.1,0,0.1,0,0.2,0c1.9,0.3,3.5,2,3.8,4
						c0.1-2.1,1.5-3.8,3.4-4.2c0.1,0,0.1,0,0.2,0c-0.1,0-0.1,0-0.2,0C114.2,95,112.7,93.4,112.4,91.3z"/>
					<path class="st0" d="M123.4,90.9c-0.1,2-1.5,3.8-3.3,4.1c-0.1,0-0.1,0-0.2,0c0.1,0,0.1,0,0.2,0c1.9,0.2,3.5,1.8,3.8,3.9
						c0.1-2,1.5-3.8,3.3-4.2c0.1,0,0.1,0,0.2,0c-0.1,0-0.1,0-0.2,0C125.2,94.5,123.7,92.9,123.4,90.9z"/>
					<path class="st0" d="M134.4,90.1c-0.1,2-1.4,3.7-3.3,4.1c-0.1,0-0.1,0-0.2,0c0.1,0,0.1,0,0.2,0c1.9,0.2,3.5,1.7,3.8,3.6
						c0.1-2,1.4-3.7,3.3-4.2c0.1,0,0.1,0,0.2-0.1c-0.1,0-0.1,0-0.2,0C136.3,93.6,134.7,92.1,134.4,90.1z"/>
					<path class="st0" d="M145.3,89.2c0,1.9-1.4,3.6-3.3,4.1c-0.1,0-0.1,0-0.2,0.1c0.1,0,0.1,0,0.2,0c1.9,0.1,3.5,1.6,3.9,3.5
						c0-1.9,1.4-3.6,3.3-4.1c0.1,0,0.1,0,0.2-0.1c-0.1,0-0.1,0-0.2,0C147.3,92.5,145.7,91.1,145.3,89.2z"/>
					<path class="st0" d="M156.3,88.1c0,1.9-1.3,3.5-3.2,4c-0.1,0-0.1,0-0.2,0.1c0.1,0,0.1,0,0.2,0c1.9,0.1,3.5,1.5,3.9,3.3
						c0-1.9,1.4-3.6,3.2-4c0.1,0,0.1,0,0.2-0.1c-0.1,0-0.1,0-0.2,0C158.3,91.3,156.7,89.9,156.3,88.1z"/>
				</g>
				<g>
					<path class="st0" d="M30.6,85c-0.4,1.8-2,3.2-3.9,3.3c-0.1,0-0.1,0-0.2,0c0.1,0,0.1,0,0.2,0.1c1.9,0.5,3.1,2.2,3.1,4.1
						c0.4-1.9,2-3.2,3.9-3.3c0.1,0,0.1,0,0.2,0c-0.1,0-0.1,0-0.2-0.1C31.9,88.5,30.6,86.8,30.6,85z"/>
					<path class="st0" d="M41.5,85.9c-0.4,1.8-2,3.3-3.9,3.4c-0.1,0-0.1,0-0.2,0c0.1,0,0.1,0,0.2,0.1c1.9,0.5,3.2,2.2,3.2,4.2
						c0.4-1.9,2-3.4,3.9-3.5c0.1,0,0.1,0,0.2,0c-0.1,0-0.1,0-0.2-0.1C42.8,89.5,41.5,87.8,41.5,85.9z"/>
					<path class="st0" d="M52.4,86.7c-0.3,1.9-1.9,3.4-3.8,3.5c-0.1,0-0.1,0-0.2,0c0.1,0,0.1,0,0.2,0.1c1.9,0.5,3.2,2.2,3.2,4.3
						c0.4-2,2-3.5,3.9-3.7c0.1,0,0.1,0,0.2,0c-0.1,0-0.1,0-0.2-0.1C53.7,90.3,52.4,88.6,52.4,86.7z"/>
					<path class="st0" d="M63.3,87.2c-0.3,1.9-1.9,3.5-3.8,3.6c-0.1,0-0.1,0-0.2,0c0.1,0,0.1,0,0.2,0.1c1.9,0.4,3.2,2.2,3.2,4.3
						c0.4-2.1,1.9-3.7,3.8-3.9c0.1,0,0.1,0,0.2,0c-0.1,0-0.1,0-0.2,0C64.7,90.9,63.4,89.1,63.3,87.2z"/>
					<path class="st0" d="M74.2,87.6c-0.3,1.9-1.8,3.5-3.7,3.7c-0.1,0-0.1,0-0.2,0c0.1,0,0.1,0,0.2,0c1.9,0.4,3.2,2.1,3.3,4.3
						c0.3-2.1,1.9-3.7,3.8-4c0.1,0,0.1,0,0.2,0c-0.1,0-0.1,0-0.2,0C75.6,91.2,74.3,89.5,74.2,87.6z"/>
					<path class="st0" d="M85,87.8c-0.2,1.9-1.7,3.5-3.6,3.8c-0.1,0-0.1,0-0.2,0c0.1,0,0.1,0,0.2,0c1.9,0.4,3.3,2.1,3.4,4.2
						c0.3-2.1,1.8-3.7,3.7-4c0.1,0,0.1,0,0.2,0c-0.1,0-0.1,0-0.2,0C86.6,91.4,85.2,89.7,85,87.8z"/>
					<path class="st0" d="M95.9,87.8c-0.2,1.9-1.6,3.5-3.5,3.8c-0.1,0-0.1,0-0.2,0c0.1,0,0.1,0,0.2,0c1.9,0.3,3.4,2,3.6,4.1
						c0.2-2.1,1.6-3.7,3.5-4.1c0.1,0,0.1,0,0.2,0c-0.1,0-0.1,0-0.2,0C97.5,91.4,96,89.7,95.9,87.8z"/>
					<path class="st0" d="M106.7,87.6c-0.2,1.9-1.6,3.6-3.5,3.9c-0.1,0-0.1,0-0.2,0c0.1,0,0.1,0,0.2,0c1.9,0.3,3.4,1.9,3.7,4
						c0.1-2.1,1.5-3.8,3.4-4.1c0.1,0,0.1,0,0.2,0c-0.1,0-0.1,0-0.2,0C108.5,91.1,106.9,89.5,106.7,87.6z"/>
					<path class="st0" d="M117.6,87.3c-0.1,1.9-1.5,3.6-3.4,3.9c-0.1,0-0.1,0-0.2,0c0.1,0,0.1,0,0.2,0c1.9,0.3,3.5,1.9,3.8,3.9
						c0.1-2.1,1.5-3.8,3.4-4.2c0.1,0,0.1,0,0.2,0c-0.1,0-0.1,0-0.2,0C119.4,90.7,117.9,89.1,117.6,87.3z"/>
					<path class="st0" d="M128.5,86.7c-0.1,1.9-1.5,3.6-3.4,4c-0.1,0-0.1,0-0.2,0c0.1,0,0.1,0,0.2,0c1.9,0.2,3.5,1.8,3.8,3.8
						c0.1-2,1.4-3.7,3.3-4.2c0.1,0,0.1,0,0.2,0c-0.1,0-0.1,0-0.2,0C130.4,90.1,128.8,88.6,128.5,86.7z"/>
					<path class="st0" d="M139.5,85.9c-0.1,1.9-1.4,3.6-3.3,4c-0.1,0-0.1,0-0.2,0c0.1,0,0.1,0,0.2,0c1.9,0.2,3.5,1.6,3.8,3.6
						c0.1-2,1.4-3.6,3.3-4.1c0.1,0,0.1,0,0.2-0.1c-0.1,0-0.1,0-0.2,0C141.4,89.2,139.8,87.8,139.5,85.9z"/>
					<path class="st0" d="M150.4,85c0,1.9-1.4,3.5-3.3,4c-0.1,0-0.1,0-0.2,0c0.1,0,0.1,0,0.2,0c1.9,0.1,3.5,1.5,3.9,3.4
						c0-1.9,1.4-3.6,3.2-4c0.1,0,0.1,0,0.2-0.1c-0.1,0-0.1,0-0.2,0C152.3,88.2,150.7,86.8,150.4,85z"/>
				</g>
				<g>
					<path class="st0" d="M29.8,93.3c-0.4,1.9-2,3.2-4,3.2c-0.1,0-0.1,0-0.2,0c0.1,0,0.1,0,0.2,0.1c1.9,0.5,3.2,2.3,3.2,4.1
						c0.4-1.8,2-3.1,4-3.2c0.1,0,0.1,0,0.2,0c-0.1,0-0.1,0-0.2-0.1C31.1,97,29.8,95.3,29.8,93.3z"/>
					<path class="st0" d="M40.8,94.5c-0.4,1.9-2,3.3-3.9,3.4c-0.1,0-0.1,0-0.2,0c0.1,0,0.1,0,0.2,0.1c1.9,0.5,3.2,2.3,3.2,4.2
						c0.4-1.8,2-3.2,3.9-3.3c0.1,0,0.1,0,0.2,0c-0.1,0-0.1,0-0.2-0.1C42.1,98.3,40.8,96.5,40.8,94.5z"/>
					<path class="st0" d="M51.8,95.5c-0.4,2-2,3.5-3.9,3.6c-0.1,0-0.1,0-0.2,0c0.1,0,0.1,0,0.2,0.1c1.9,0.5,3.2,2.3,3.3,4.2
						c0.3-1.9,1.9-3.3,3.9-3.5c0.1,0,0.1,0,0.2,0c-0.1,0-0.1,0-0.2-0.1C53.1,99.4,51.8,97.6,51.8,95.5z"/>
					<path class="st0" d="M62.7,96.3c-0.4,2.1-1.9,3.7-3.9,3.8c-0.1,0-0.1,0-0.2,0c0.1,0,0.1,0,0.2,0.1c1.9,0.5,3.2,2.2,3.3,4.1
						c0.3-1.9,1.9-3.4,3.8-3.6c0.1,0,0.1,0,0.2,0c-0.1,0-0.1,0-0.2,0C64.1,100.2,62.8,98.4,62.7,96.3z"/>
					<path class="st0" d="M73.8,96.7c-0.3,2.1-1.9,3.7-3.8,3.9c-0.1,0-0.1,0-0.2,0c0.1,0,0.1,0,0.2,0c1.9,0.4,3.3,2.1,3.4,4
						c0.3-1.9,1.9-3.5,3.8-3.7c0.1,0,0.1,0,0.2,0c-0.1,0-0.1,0-0.2,0C75.3,100.5,73.9,98.8,73.8,96.7z"/>
					<path class="st0" d="M84.9,96.9c-0.3,2.1-1.8,3.7-3.7,4c-0.1,0-0.1,0-0.2,0c0.1,0,0.1,0,0.2,0c1.9,0.4,3.4,2.1,3.5,3.9
						c0.2-1.9,1.8-3.5,3.7-3.8c0.1,0,0.1,0,0.2,0c-0.1,0-0.1,0-0.2,0C86.5,100.7,85,99,84.9,96.9z"/>
					<path class="st0" d="M96,96.8c-0.2,2.1-1.7,3.8-3.6,4c-0.1,0-0.1,0-0.2,0c0.1,0,0.1,0,0.2,0c1.9,0.3,3.4,2,3.6,3.9
						c0.2-1.9,1.7-3.5,3.6-3.9c0.1,0,0.1,0,0.2,0c-0.1,0-0.1,0-0.2,0C97.7,100.6,96.2,98.9,96,96.8z"/>
					<path class="st0" d="M107.1,96.6c-0.1,2.1-1.6,3.8-3.5,4.1c-0.1,0-0.1,0-0.2,0c0.1,0,0.1,0,0.2,0c1.9,0.3,3.5,1.9,3.7,3.8
						c0.2-1.9,1.6-3.6,3.5-3.9c0.1,0,0.1,0,0.2,0c-0.1,0-0.1,0-0.2,0C108.9,100.4,107.3,98.7,107.1,96.6z"/>
					<path class="st0" d="M118.1,96.2c-0.1,2.1-1.5,3.8-3.4,4.1c-0.1,0-0.1,0-0.2,0c0.1,0,0.1,0,0.2,0c1.9,0.3,3.5,1.8,3.7,3.7
						c0.1-1.9,1.5-3.6,3.4-4c0.1,0,0.1,0,0.2,0c-0.1,0-0.1,0-0.2,0C120,99.9,118.4,98.3,118.1,96.2z"/>
					<path class="st0" d="M129.2,95.5c-0.1,2-1.4,3.8-3.3,4.2c-0.1,0-0.1,0-0.2,0c0.1,0,0.1,0,0.2,0c1.9,0.2,3.5,1.7,3.8,3.6
						c0.1-1.9,1.5-3.6,3.4-4.1c0.1,0,0.1,0,0.2-0.1c-0.1,0-0.1,0-0.2,0C131.1,99,129.5,97.5,129.2,95.5z"/>
					<path class="st0" d="M140.2,94.5c0,2-1.4,3.7-3.3,4.2c-0.1,0-0.1,0-0.2,0.1c0.1,0,0.1,0,0.2,0c1.9,0.1,3.5,1.5,3.8,3.4
						c0.1-1.9,1.4-3.6,3.3-4.1c0.1,0,0.1,0,0.2-0.1c-0.1,0-0.1,0-0.2,0C142.1,97.9,140.5,96.4,140.2,94.5z"/>
					<path class="st0" d="M151.2,93.3c0,1.9-1.4,3.6-3.3,4.1c-0.1,0-0.1,0-0.2,0.1c0.1,0,0.1,0,0.2,0c1.9,0.1,3.5,1.5,3.9,3.3
						c0-1.9,1.4-3.6,3.3-4c0.1,0,0.1,0,0.2-0.1c-0.1,0-0.1,0-0.2,0C153.2,96.6,151.6,95.2,151.2,93.3z"/>
				</g>
			</g>
		</g>
	</g>
	<g>
		<g>
			<path d="M202.7,85.9v-30h-11.8v-5.6h30.2v5.6h-11.8v30H202.7z"/>
			<path d="M242.2,86.4c-2.8,0-5.3-0.5-7.7-1.4c-2.3-0.9-4.4-2.2-6.1-3.8c-1.7-1.6-3.1-3.6-4-5.8c-0.9-2.2-1.4-4.7-1.4-7.3
				s0.5-5.1,1.4-7.3c0.9-2.2,2.3-4.2,4-5.8c1.7-1.6,3.8-2.9,6.1-3.8c2.3-0.9,4.9-1.4,7.6-1.4c2.8,0,5.3,0.5,7.7,1.4
				c2.3,0.9,4.3,2.2,6.1,3.8c1.7,1.6,3.1,3.6,4,5.8c0.9,2.2,1.4,4.7,1.4,7.3s-0.5,5.1-1.4,7.3c-0.9,2.2-2.3,4.2-4,5.8
				c-1.7,1.6-3.8,2.9-6.1,3.8C247.5,85.9,245,86.4,242.2,86.4z M242.2,80.6c1.8,0,3.5-0.3,5-0.9s2.8-1.5,4-2.6c1.1-1.1,2-2.5,2.6-4
				c0.6-1.5,0.9-3.2,0.9-5c0-1.8-0.3-3.5-0.9-5c-0.6-1.5-1.5-2.8-2.6-4c-1.1-1.1-2.4-2-4-2.6c-1.5-0.6-3.2-0.9-5-0.9
				c-1.8,0-3.4,0.3-5,0.9c-1.5,0.6-2.8,1.5-4,2.6c-1.1,1.1-2,2.5-2.6,4c-0.6,1.5-0.9,3.2-0.9,5c0,1.8,0.3,3.5,0.9,5
				c0.6,1.5,1.5,2.9,2.6,4c1.1,1.1,2.4,2,4,2.6S240.4,80.6,242.2,80.6z"/>
			<path d="M268.4,85.9V50.3H283c3.2,0,5.9,0.5,8.1,1.5c2.3,1,4,2.5,5.2,4.4c1.2,1.9,1.8,4.2,1.8,6.8c0,2.6-0.6,4.9-1.8,6.8
				c-1.2,1.9-3,3.4-5.2,4.4c-2.3,1-5,1.5-8.1,1.5h-11l2.9-3.1v13.4H268.4z M275,73.2L272,70h10.7c2.9,0,5.1-0.6,6.6-1.9
				c1.5-1.2,2.2-3,2.2-5.2c0-2.3-0.7-4-2.2-5.2s-3.7-1.8-6.6-1.8H272l2.9-3.3V73.2z"/>
			<path d="M202.1,129.2h20.1v5.5h-26.7V99.2h26v5.5h-19.4V129.2z M201.6,114h17.7v5.4h-17.7V114z"/>
			<path d="M246.2,135.3c-2.8,0-5.3-0.5-7.7-1.4c-2.3-0.9-4.4-2.2-6.1-3.8c-1.7-1.6-3.1-3.6-4-5.8c-0.9-2.2-1.4-4.7-1.4-7.3
				s0.5-5.1,1.4-7.3c0.9-2.2,2.3-4.2,4-5.8c1.7-1.6,3.8-2.9,6.1-3.8c2.3-0.9,4.9-1.4,7.6-1.4c2.8,0,5.3,0.5,7.7,1.4
				c2.3,0.9,4.3,2.2,6.1,3.8c1.7,1.6,3.1,3.6,4,5.8c0.9,2.2,1.4,4.7,1.4,7.3s-0.5,5.1-1.4,7.3c-0.9,2.2-2.3,4.2-4,5.8
				c-1.7,1.6-3.8,2.9-6.1,3.8C251.5,134.8,249,135.3,246.2,135.3z M246.2,129.5c1.8,0,3.5-0.3,5-0.9c1.5-0.6,2.8-1.5,4-2.6
				c1.1-1.1,2-2.5,2.6-4c0.6-1.5,0.9-3.2,0.9-5c0-1.8-0.3-3.5-0.9-5c-0.6-1.5-1.5-2.8-2.6-4c-1.1-1.1-2.4-2-4-2.6
				c-1.5-0.6-3.2-0.9-5-0.9c-1.8,0-3.5,0.3-5,0.9c-1.5,0.6-2.8,1.5-4,2.6c-1.1,1.1-2,2.5-2.6,4c-0.6,1.5-0.9,3.2-0.9,5
				c0,1.8,0.3,3.5,0.9,5c0.6,1.5,1.5,2.9,2.6,4c1.1,1.1,2.4,2,4,2.6C242.7,129.2,244.4,129.5,246.2,129.5z M257.8,142.6
				c-1.3,0-2.5-0.1-3.6-0.4c-1.2-0.3-2.3-0.8-3.5-1.4c-1.1-0.7-2.3-1.5-3.5-2.6c-1.2-1.1-2.6-2.4-4-3.9l7-1.8c0.9,1.3,1.9,2.3,2.7,3
				c0.9,0.8,1.7,1.3,2.5,1.7c0.8,0.3,1.7,0.5,2.5,0.5c2.3,0,4.4-0.9,6.1-2.8l3.1,3.7C264.7,141.2,261.6,142.6,257.8,142.6z"/>
			<path d="M287.6,135.3c-4.9,0-8.7-1.4-11.5-4.1c-2.8-2.7-4.1-6.7-4.1-11.9V99.2h6.6V119c0,3.7,0.8,6.3,2.4,8
				c1.6,1.7,3.8,2.5,6.7,2.5c2.9,0,5.1-0.8,6.7-2.5c1.6-1.7,2.3-4.3,2.3-8V99.2h6.5v20.1c0,5.2-1.4,9.2-4.1,11.9
				C296.3,133.9,292.5,135.3,287.6,135.3z"/>
			<path d="M306.7,134.8l16-35.6h6.5l16.1,35.6h-6.9l-13.8-32.1h2.6l-13.7,32.1H306.7z M314,126.5l1.8-5.2H335l1.8,5.2H314z"/>
			<path d="M355.2,134.8v-30h-11.8v-5.6h30.2v5.6h-11.8v30H355.2z"/>
			<path d="M394.8,135.3c-2.8,0-5.3-0.5-7.7-1.4c-2.3-0.9-4.4-2.2-6.1-3.8c-1.7-1.6-3.1-3.6-4-5.8c-0.9-2.2-1.4-4.7-1.4-7.3
				s0.5-5.1,1.4-7.3c0.9-2.2,2.3-4.2,4-5.8c1.7-1.6,3.8-2.9,6.1-3.8c2.3-0.9,4.9-1.4,7.6-1.4c2.8,0,5.3,0.5,7.7,1.4
				c2.3,0.9,4.3,2.2,6.1,3.8c1.7,1.6,3.1,3.6,4,5.8c0.9,2.2,1.4,4.7,1.4,7.3s-0.5,5.1-1.4,7.3c-0.9,2.2-2.3,4.2-4,5.8
				c-1.7,1.6-3.8,2.9-6.1,3.8C400.1,134.8,397.5,135.3,394.8,135.3z M394.7,129.5c1.8,0,3.5-0.3,5-0.9c1.5-0.6,2.8-1.5,4-2.6
				c1.1-1.1,2-2.5,2.6-4c0.6-1.5,0.9-3.2,0.9-5c0-1.8-0.3-3.5-0.9-5c-0.6-1.5-1.5-2.8-2.6-4c-1.1-1.1-2.4-2-4-2.6
				c-1.5-0.6-3.2-0.9-5-0.9c-1.8,0-3.4,0.3-5,0.9c-1.5,0.6-2.8,1.5-4,2.6c-1.1,1.1-2,2.5-2.6,4c-0.6,1.5-0.9,3.2-0.9,5
				c0,1.8,0.3,3.5,0.9,5c0.6,1.5,1.5,2.9,2.6,4c1.1,1.1,2.4,2,4,2.6C391.3,129.2,392.9,129.5,394.7,129.5z"/>
			<path d="M420.9,134.8V99.2h14.6c3.2,0,5.9,0.5,8.1,1.5c2.3,1,4,2.5,5.2,4.4c1.2,1.9,1.8,4.2,1.8,6.8c0,2.6-0.6,4.9-1.8,6.7
				c-1.2,1.9-3,3.3-5.2,4.3c-2.3,1-5,1.5-8.1,1.5h-11l2.9-3v13.4H420.9z M427.5,122.1l-2.9-3.2h10.7c2.9,0,5.1-0.6,6.6-1.9
				c1.5-1.3,2.2-3,2.2-5.2c0-2.3-0.7-4-2.2-5.2s-3.7-1.8-6.6-1.8h-10.7l2.9-3.3V122.1z M444.2,134.8l-9-12.9h7.1l9.1,12.9H444.2z"/>
		</g>
	</g>
</g>
</svg>
