<?xml version="1.0" encoding="utf-8"?>
<!-- Generator: Adobe Illustrator 26.3.1, SVG Export Plug-In . SVG Version: 6.00 Build 0)  -->
<svg version="1.1" id="Layer_1" xmlns="http://www.w3.org/2000/svg" xmlns:xlink="http://www.w3.org/1999/xlink" x="0px" y="0px"
	 viewBox="0 0 140 24" style="enable-background:new 0 0 140 24;" xml:space="preserve">
<style type="text/css">
	.st0{enable-background:new    ;}
</style>
<g>
	<g class="st0">
		<path d="M16.9,17.5h-2.8v-11h-3.6V4.1h10.1v2.3h-3.6V17.5z"/>
		<path d="M32.6,12.3c0,0.8-0.1,1.6-0.3,2.3c-0.2,0.7-0.6,1.2-1,1.7s-1,0.8-1.6,1c-0.6,0.2-1.3,0.3-2.1,0.3c-0.7,0-1.4-0.1-2-0.3
			c-0.6-0.2-1.1-0.6-1.6-1c-0.4-0.5-0.8-1-1-1.7c-0.2-0.7-0.4-1.4-0.4-2.3c0-1.1,0.2-2.1,0.6-2.9c0.4-0.8,1-1.4,1.7-1.8
			c0.7-0.4,1.6-0.6,2.6-0.6c1,0,1.8,0.2,2.5,0.6c0.7,0.4,1.3,1,1.7,1.8S32.6,11.2,32.6,12.3z M25.5,12.3c0,0.7,0.1,1.2,0.2,1.7
			c0.1,0.5,0.4,0.8,0.7,1c0.3,0.2,0.7,0.3,1.2,0.3c0.5,0,0.9-0.1,1.2-0.3c0.3-0.2,0.5-0.6,0.7-1s0.2-1,0.2-1.7
			c0-0.7-0.1-1.2-0.2-1.7s-0.4-0.8-0.7-1s-0.7-0.3-1.2-0.3c-0.7,0-1.3,0.3-1.6,0.8C25.7,10.6,25.5,11.3,25.5,12.3z"/>
		<path d="M41.4,7.1c1.1,0,2.1,0.4,2.8,1.3c0.7,0.9,1.1,2.2,1.1,3.9c0,1.2-0.2,2.1-0.5,2.9C44.5,16,44,16.6,43.4,17s-1.3,0.6-2,0.6
			c-0.5,0-0.9-0.1-1.3-0.2c-0.4-0.1-0.7-0.3-0.9-0.5s-0.5-0.4-0.6-0.6h-0.1c0,0.2,0.1,0.5,0.1,0.7c0,0.3,0,0.5,0,0.7v4.1h-2.8V7.3
			H38l0.4,1.3h0.1c0.2-0.3,0.4-0.5,0.7-0.8c0.3-0.2,0.6-0.4,0.9-0.6S41,7.1,41.4,7.1z M40.6,9.3c-0.5,0-0.9,0.1-1.2,0.3
			c-0.3,0.2-0.5,0.5-0.6,0.9c-0.1,0.4-0.2,0.9-0.2,1.5v0.3c0,0.7,0.1,1.2,0.2,1.7c0.1,0.5,0.3,0.8,0.6,1c0.3,0.2,0.7,0.4,1.2,0.4
			c0.4,0,0.8-0.1,1-0.4c0.3-0.2,0.5-0.6,0.6-1s0.2-1,0.2-1.7c0-1-0.2-1.7-0.5-2.2S41.2,9.3,40.6,9.3z"/>
		<path d="M56.4,17.5h-7.7V4.1h7.7v2.3h-4.8v2.9h4.5v2.3h-4.5v3.4h4.8V17.5z"/>
		<path d="M66,21.9v-4.3c0-0.3,0-0.5,0-0.8c0-0.3,0.1-0.5,0.1-0.8H66c-0.3,0.4-0.6,0.8-1.1,1.1c-0.5,0.3-1.1,0.4-1.8,0.4
			c-1.1,0-2.1-0.4-2.8-1.3c-0.7-0.9-1.1-2.2-1.1-3.9c0-1.2,0.2-2.1,0.5-2.9s0.8-1.4,1.4-1.8c0.6-0.4,1.3-0.6,2-0.6
			c0.7,0,1.4,0.1,1.8,0.4s0.8,0.6,1.1,1.1h0.1l0.2-1.3h2.3v14.7H66z M64.1,15.5c0.5,0,0.9-0.1,1.2-0.3c0.3-0.2,0.5-0.5,0.7-0.9
			c0.1-0.4,0.2-0.9,0.2-1.5v-0.3c0-1-0.2-1.7-0.5-2.3s-0.9-0.8-1.7-0.8c-0.7,0-1.2,0.3-1.5,0.8s-0.5,1.3-0.5,2.3
			c0,1,0.2,1.8,0.5,2.3S63.4,15.5,64.1,15.5z"/>
		<path d="M82,7.3v10.2h-2.1l-0.4-1.3h-0.1c-0.2,0.3-0.5,0.6-0.8,0.8c-0.3,0.2-0.7,0.4-1.1,0.5s-0.8,0.2-1.2,0.2
			c-0.7,0-1.4-0.1-1.9-0.4s-1-0.7-1.3-1.2c-0.3-0.5-0.5-1.3-0.5-2.1V7.3h2.8v5.9c0,0.7,0.1,1.3,0.4,1.6s0.7,0.6,1.2,0.6
			c0.6,0,1-0.1,1.3-0.4c0.3-0.3,0.5-0.6,0.7-1.1c0.1-0.5,0.2-1.1,0.2-1.8V7.3H82z"/>
		<path d="M90,7.1c1.4,0,2.4,0.3,3.1,0.9s1.1,1.5,1.1,2.7v6.8h-1.9l-0.5-1.4h-0.1c-0.3,0.4-0.6,0.7-0.9,0.9c-0.3,0.2-0.7,0.4-1,0.5
			s-0.9,0.2-1.4,0.2c-0.6,0-1.1-0.1-1.6-0.3s-0.9-0.6-1.1-1.1s-0.4-1.1-0.4-1.8c0-1.1,0.4-1.9,1.1-2.4c0.8-0.5,1.9-0.8,3.4-0.9
			l1.8-0.1v-0.4c0-0.5-0.1-0.9-0.4-1.2s-0.7-0.4-1.2-0.4c-0.5,0-1,0.1-1.4,0.2C88,9.5,87.5,9.6,87,9.9L86.1,8
			c0.5-0.3,1.1-0.5,1.8-0.7S89.3,7.1,90,7.1z M91.5,12.7l-1.1,0c-0.9,0-1.5,0.2-1.9,0.5c-0.3,0.3-0.5,0.7-0.5,1.2
			c0,0.4,0.1,0.7,0.4,0.9s0.6,0.3,1,0.3c0.6,0,1.1-0.2,1.5-0.5c0.4-0.4,0.6-0.9,0.6-1.5V12.7z"/>
		<path d="M102.3,15.4c0.3,0,0.6,0,0.9-0.1c0.3-0.1,0.6-0.1,0.9-0.2v2.1c-0.3,0.1-0.7,0.2-1.1,0.3c-0.4,0.1-0.9,0.1-1.4,0.1
			c-0.6,0-1.2-0.1-1.6-0.3s-0.9-0.5-1.1-1c-0.3-0.5-0.4-1.2-0.4-2V9.4H97V8.2l1.5-0.9l0.8-2.1h1.8v2.2h2.9v2.1h-2.9v4.9
			c0,0.4,0.1,0.7,0.3,0.9S101.9,15.4,102.3,15.4z"/>
		<path d="M116.3,12.3c0,0.8-0.1,1.6-0.3,2.3c-0.2,0.7-0.6,1.2-1,1.7c-0.4,0.5-1,0.8-1.6,1s-1.3,0.3-2.1,0.3c-0.7,0-1.4-0.1-2-0.3
			s-1.1-0.6-1.6-1c-0.4-0.5-0.8-1-1-1.7c-0.2-0.7-0.4-1.4-0.4-2.3c0-1.1,0.2-2.1,0.6-2.9s1-1.4,1.7-1.8c0.7-0.4,1.6-0.6,2.7-0.6
			c1,0,1.8,0.2,2.5,0.6c0.7,0.4,1.3,1,1.7,1.8S116.3,11.2,116.3,12.3z M109.3,12.3c0,0.7,0.1,1.2,0.2,1.7c0.1,0.5,0.4,0.8,0.7,1
			c0.3,0.2,0.7,0.3,1.2,0.3c0.5,0,0.9-0.1,1.2-0.3c0.3-0.2,0.5-0.6,0.7-1s0.2-1,0.2-1.7c0-0.7-0.1-1.2-0.2-1.7s-0.4-0.8-0.7-1
			s-0.7-0.3-1.2-0.3c-0.7,0-1.3,0.3-1.6,0.8S109.3,11.3,109.3,12.3z"/>
		<path d="M125.2,7.1c0.1,0,0.3,0,0.5,0c0.2,0,0.3,0,0.5,0.1l-0.2,2.6c-0.1,0-0.2-0.1-0.4-0.1c-0.2,0-0.3,0-0.4,0
			c-0.4,0-0.7,0-1,0.1c-0.3,0.1-0.6,0.2-0.9,0.4c-0.3,0.2-0.5,0.5-0.6,0.8c-0.2,0.3-0.2,0.7-0.2,1.2v5.2h-2.8V7.3h2.1L122,9h0.1
			c0.2-0.3,0.5-0.7,0.8-1c0.3-0.3,0.6-0.5,1-0.7C124.3,7.2,124.8,7.1,125.2,7.1z"/>
	</g>
</g>
</svg>
